<svg xmlns="http://www.w3.org/2000/svg" width="1000" height="390" viewBox="0 0 1000 390" data-palette="56e675-6ae7c8-b7f6ac-b0b05bd06f4e" role="img" aria-labelledby="hero-light-title hero-light-desc"><title id="hero-light-title">hwcfgmap</title><desc id="hero-light-desc">Turn a hardware profile into a starting launch configuration.</desc><defs><linearGradient id="brand" gradientUnits="userSpaceOnUse" x2="1000" y2="390"><stop stop-color="#318343"/><stop offset=".6" stop-color="#3b7f6e"/><stop offset="1" stop-color="#5c7c57"/></linearGradient><radialGradient id="halo"><stop stop-color="#318343" stop-opacity=".22"/><stop offset="1" stop-color="#f9fefa" stop-opacity="0"/></radialGradient><filter id="glow"><feGaussianBlur stdDeviation="5"/></filter><pattern id="grid" width="40" height="40" patternUnits="userSpaceOnUse"><path d="M40 0H0V40" fill="none" stroke="#cbf7d5" stroke-opacity=".35" stroke-width=".6"/></pattern><marker id="arrow" viewBox="0 0 10 10" refX="8" refY="5" markerWidth="5" markerHeight="5" orient="auto"><path d="m1 1 7 4-7 4" fill="none" stroke="#318343" stroke-width="1.5"/></marker></defs><style>text{font-family:Arial,"Noto Sans",sans-serif}.flow{stroke-dasharray:10 110;animation:flow 6s linear infinite}.pulse{animation:pulse 5s ease-in-out infinite}.turn{transform-box:fill-box;transform-origin:center;animation:turn 36s linear infinite}@keyframes flow{to{stroke-dashoffset:-360}}@keyframes pulse{0%,100%{opacity:.45}50%{opacity:1}}@keyframes turn{to{transform:rotate(360deg)}}@media(prefers-reduced-motion:reduce){*{animation:none!important;transform:none!important}.flow{display:none}}</style><rect width="1000" height="390" rx="16" fill="#f9fefa"/><rect width="1000" height="390" rx="16" fill="url(#grid)"/><ellipse cx="630.0" cy="167.7" rx="500.0" ry="273.0" fill="url(#halo)"/><circle cx="844.43" cy="336.33" r="1.55" fill="#3b7f6e" opacity="0.72"/><circle cx="767.29" cy="282.08" r="1.18" fill="#318343" opacity="0.69"/><circle cx="1035.59" cy="276.05" r="1.55" fill="#318343" opacity="0.39"/><circle cx="985.13" cy="65.86" r="1.59" fill="#3b7f6e" opacity="0.21"/><circle cx="907.92" cy="34.99" r="1.41" fill="#318343" opacity="0.55"/><circle cx="797.59" cy="186.94" r="1.33" fill="#318343" opacity="0.27"/><circle cx="826.20" cy="89.81" r="1.31" fill="#3b7f6e" opacity="0.77"/><circle cx="759.52" cy="76.25" r="0.72" fill="#318343" opacity="0.61"/><circle cx="981.82" cy="194.03" r="0.78" fill="#318343" opacity="0.55"/><circle cx="593.72" cy="270.95" r="1.11" fill="#3b7f6e" opacity="0.61"/><circle cx="570.46" cy="241.18" r="0.71" fill="#318343" opacity="0.68"/><circle cx="678.04" cy="391.33" r="0.77" fill="#318343" opacity="0.69"/><circle cx="922.72" cy="407.66" r="0.92" fill="#3b7f6e" opacity="0.46"/><circle cx="686.34" cy="148.17" r="1.54" fill="#318343" opacity="0.70"/><circle cx="1064.53" cy="259.96" r="1.05" fill="#318343" opacity="0.77"/><circle cx="796.16" cy="188.06" r="1.34" fill="#3b7f6e" opacity="0.41"/><circle cx="710.46" cy="38.01" r="1.55" fill="#318343" opacity="0.52"/><circle cx="722.06" cy="342.71" r="0.82" fill="#318343" opacity="0.57"/><circle cx="1002.67" cy="375.02" r="0.77" fill="#3b7f6e" opacity="0.79"/><circle cx="1064.81" cy="306.03" r="1.27" fill="#318343" opacity="0.50"/><circle cx="582.30" cy="166.75" r="0.98" fill="#318343" opacity="0.21"/><circle cx="1048.54" cy="235.77" r="0.94" fill="#3b7f6e" opacity="0.61"/><circle cx="599.17" cy="289.62" r="1.03" fill="#318343" opacity="0.44"/><circle cx="599.46" cy="172.48" r="1.02" fill="#318343" opacity="0.57"/><circle cx="616.32" cy="162.63" r="0.97" fill="#3b7f6e" opacity="0.77"/><circle cx="736.64" cy="294.91" r="0.64" fill="#318343" opacity="0.47"/><circle cx="696.95" cy="349.31" r="0.72" fill="#318343" opacity="0.73"/><circle cx="1002.52" cy="345.41" r="1.29" fill="#3b7f6e" opacity="0.48"/><circle cx="859.69" cy="53.31" r="1.12" fill="#318343" opacity="0.36"/><circle cx="660.04" cy="96.60" r="1.16" fill="#318343" opacity="0.52"/><circle cx="1033.03" cy="162.39" r="1.19" fill="#3b7f6e" opacity="0.70"/><circle cx="623.16" cy="224.56" r="1.24" fill="#318343" opacity="0.65"/><circle cx="1033.94" cy="289.79" r="0.69" fill="#318343" opacity="0.46"/><circle cx="749.95" cy="49.99" r="1.57" fill="#3b7f6e" opacity="0.73"/><circle cx="966.77" cy="117.97" r="0.77" fill="#318343" opacity="0.59"/><circle cx="759.31" cy="426.46" r="1.24" fill="#318343" opacity="0.34"/><circle cx="660.31" cy="126.62" r="1.51" fill="#3b7f6e" opacity="0.21"/><circle cx="910.10" cy="258.89" r="0.86" fill="#318343" opacity="0.49"/><circle cx="787.15" cy="131.45" r="1.44" fill="#318343" opacity="0.22"/><circle cx="702.25" cy="102.61" r="0.68" fill="#3b7f6e" opacity="0.26"/><circle cx="628.89" cy="181.45" r="1.55" fill="#318343" opacity="0.76"/><circle cx="889.77" cy="89.86" r="1.14" fill="#318343" opacity="0.52"/><circle cx="730.71" cy="149.45" r="0.93" fill="#3b7f6e" opacity="0.73"/><circle cx="893.87" cy="376.26" r="0.72" fill="#318343" opacity="0.62"/><circle cx="640.02" cy="151.31" r="0.88" fill="#318343" opacity="0.51"/><circle cx="783.68" cy="222.70" r="1.05" fill="#3b7f6e" opacity="0.50"/><circle cx="708.92" cy="43.01" r="0.89" fill="#318343" opacity="0.75"/><circle cx="1018.12" cy="288.62" r="0.73" fill="#318343" opacity="0.37"/><circle cx="794.41" cy="194.27" r="1.54" fill="#3b7f6e" opacity="0.57"/><circle cx="814.24" cy="314.94" r="1.70" fill="#318343" opacity="0.68"/><circle cx="754.78" cy="103.43" r="0.84" fill="#318343" opacity="0.67"/><circle cx="922.31" cy="31.29" r="0.76" fill="#3b7f6e" opacity="0.42"/><circle cx="1050.95" cy="177.38" r="1.66" fill="#318343" opacity="0.35"/><circle cx="762.82" cy="383.73" r="0.95" fill="#318343" opacity="0.45"/><circle cx="833.73" cy="207.24" r="0.76" fill="#3b7f6e" opacity="0.43"/><circle cx="817.32" cy="302.28" r="1.36" fill="#318343" opacity="0.58"/><circle cx="1052.59" cy="325.66" r="0.78" fill="#318343" opacity="0.68"/><circle cx="844.44" cy="433.02" r="0.82" fill="#3b7f6e" opacity="0.30"/><circle cx="813.38" cy="298.04" r="0.73" fill="#318343" opacity="0.37"/><circle cx="605.82" cy="189.71" r="1.68" fill="#318343" opacity="0.51"/><circle cx="1067.63" cy="287.14" r="1.30" fill="#3b7f6e" opacity="0.27"/><circle cx="774.25" cy="90.83" r="1.39" fill="#318343" opacity="0.48"/><circle cx="945.25" cy="389.47" r="1.12" fill="#318343" opacity="0.24"/><circle cx="1024.39" cy="350.17" r="0.92" fill="#3b7f6e" opacity="0.78"/><circle cx="759.46" cy="21.81" r="0.72" fill="#318343" opacity="0.40"/><circle cx="617.98" cy="108.48" r="1.32" fill="#318343" opacity="0.73"/><circle cx="978.18" cy="136.82" r="1.05" fill="#3b7f6e" opacity="0.64"/><circle cx="572.55" cy="265.97" r="0.88" fill="#318343" opacity="0.34"/><circle cx="919.53" cy="383.97" r="1.66" fill="#318343" opacity="0.42"/><circle cx="635.43" cy="101.83" r="0.85" fill="#3b7f6e" opacity="0.68"/><circle cx="898.18" cy="73.49" r="0.82" fill="#318343" opacity="0.58"/><circle cx="997.53" cy="240.66" r="1.64" fill="#318343" opacity="0.58"/><circle cx="1036.05" cy="318.39" r="1.32" fill="#3b7f6e" opacity="0.42"/><circle cx="1073.24" cy="270.03" r="1.65" fill="#318343" opacity="0.35"/><circle cx="689.42" cy="256.31" r="1.70" fill="#318343" opacity="0.22"/><circle cx="732.33" cy="393.32" r="1.31" fill="#3b7f6e" opacity="0.78"/><circle cx="934.31" cy="109.16" r="1.05" fill="#318343" opacity="0.48"/><circle cx="1078.53" cy="249.95" r="0.82" fill="#318343" opacity="0.29"/><circle cx="1018.33" cy="84.90" r="0.96" fill="#3b7f6e" opacity="0.26"/><circle cx="1024.75" cy="333.37" r="1.61" fill="#318343" opacity="0.50"/><circle cx="759.25" cy="48.11" r="1.39" fill="#318343" opacity="0.21"/><circle cx="785.21" cy="321.86" r="1.65" fill="#3b7f6e" opacity="0.28"/><circle cx="1083.31" cy="233.75" r="1.46" fill="#318343" opacity="0.31"/><circle cx="670.28" cy="387.35" r="1.35" fill="#318343" opacity="0.22"/><circle cx="937.69" cy="374.52" r="0.70" fill="#3b7f6e" opacity="0.76"/><circle cx="672.94" cy="385.82" r="0.84" fill="#318343" opacity="0.50"/><circle cx="791.07" cy="156.13" r="1.53" fill="#318343" opacity="0.37"/><circle cx="947.26" cy="302.94" r="1.48" fill="#3b7f6e" opacity="0.60"/><circle cx="565.36" cy="213.91" r="0.81" fill="#318343" opacity="0.42"/><circle cx="736.68" cy="175.72" r="1.66" fill="#318343" opacity="0.63"/><circle cx="911.94" cy="365.59" r="1.08" fill="#3b7f6e" opacity="0.34"/><circle cx="992.56" cy="318.07" r="1.47" fill="#318343" opacity="0.60"/><circle cx="577.99" cy="233.98" r="1.49" fill="#318343" opacity="0.72"/><circle cx="864.11" cy="402.78" r="1.16" fill="#3b7f6e" opacity="0.30"/><circle cx="1033.01" cy="350.65" r="1.02" fill="#318343" opacity="0.28"/><circle cx="657.18" cy="228.83" r="0.78" fill="#318343" opacity="0.64"/><circle cx="574.50" cy="178.36" r="1.63" fill="#3b7f6e" opacity="0.56"/><circle cx="931.30" cy="228.88" r="0.96" fill="#318343" opacity="0.40"/><circle cx="865.23" cy="425.99" r="0.64" fill="#318343" opacity="0.24"/><circle cx="1014.21" cy="106.19" r="1.69" fill="#3b7f6e" opacity="0.70"/><circle cx="770.79" cy="291.00" r="1.55" fill="#318343" opacity="0.51"/><circle cx="796.45" cy="394.28" r="0.81" fill="#318343" opacity="0.30"/><circle cx="765.09" cy="311.48" r="1.21" fill="#3b7f6e" opacity="0.61"/><circle cx="659.49" cy="268.28" r="0.78" fill="#318343" opacity="0.61"/><circle cx="878.88" cy="144.61" r="1.45" fill="#318343" opacity="0.28"/><circle cx="791.85" cy="421.50" r="1.08" fill="#3b7f6e" opacity="0.50"/><circle cx="1073.24" cy="177.92" r="1.19" fill="#318343" opacity="0.50"/><circle cx="745.41" cy="60.33" r="0.68" fill="#318343" opacity="0.22"/><circle cx="1051.09" cy="145.69" r="0.83" fill="#3b7f6e" opacity="0.27"/><circle cx="903.41" cy="316.01" r="1.56" fill="#318343" opacity="0.63"/><circle cx="575.29" cy="236.30" r="1.62" fill="#318343" opacity="0.42"/><circle cx="590.62" cy="177.05" r="1.30" fill="#3b7f6e" opacity="0.75"/><circle cx="722.63" cy="357.51" r="0.75" fill="#318343" opacity="0.32"/><circle cx="592.11" cy="180.73" r="1.06" fill="#318343" opacity="0.61"/><circle cx="1046.06" cy="143.70" r="1.12" fill="#3b7f6e" opacity="0.46"/><circle cx="675.44" cy="384.50" r="0.80" fill="#318343" opacity="0.38"/><circle cx="935.56" cy="372.03" r="1.54" fill="#318343" opacity="0.24"/><circle cx="845.44" cy="354.42" r="0.63" fill="#3b7f6e" opacity="0.28"/><circle cx="728.95" cy="65.25" r="0.98" fill="#318343" opacity="0.65"/><circle cx="778.12" cy="75.37" r="1.31" fill="#318343" opacity="0.69"/><circle cx="1013.47" cy="195.97" r="1.38" fill="#3b7f6e" opacity="0.42"/><circle cx="875.95" cy="372.38" r="1.05" fill="#318343" opacity="0.26"/><circle cx="1020.54" cy="183.72" r="0.86" fill="#318343" opacity="0.34"/><circle cx="569.64" cy="255.40" r="0.97" fill="#3b7f6e" opacity="0.37"/><circle cx="871.09" cy="363.74" r="1.34" fill="#318343" opacity="0.52"/><circle cx="1055.58" cy="164.14" r="0.91" fill="#318343" opacity="0.58"/><circle cx="683.50" cy="64.76" r="1.57" fill="#3b7f6e" opacity="0.53"/><circle cx="574.89" cy="253.39" r="1.52" fill="#318343" opacity="0.43"/><circle cx="732.43" cy="95.47" r="1.21" fill="#318343" opacity="0.29"/><circle cx="1010.16" cy="132.05" r="1.32" fill="#3b7f6e" opacity="0.23"/><circle cx="811.53" cy="45.19" r="0.92" fill="#318343" opacity="0.37"/><circle cx="935.12" cy="391.08" r="1.21" fill="#318343" opacity="0.60"/><circle cx="689.88" cy="328.40" r="1.62" fill="#3b7f6e" opacity="0.45"/><circle cx="823.91" cy="56.99" r="0.66" fill="#318343" opacity="0.77"/><circle cx="624.29" cy="344.18" r="1.01" fill="#318343" opacity="0.59"/><circle cx="952.29" cy="123.95" r="1.59" fill="#3b7f6e" opacity="0.38"/><circle cx="815.52" cy="176.39" r="1.67" fill="#318343" opacity="0.43"/><circle cx="693.37" cy="349.39" r="1.53" fill="#318343" opacity="0.63"/><circle cx="621.59" cy="294.79" r="0.91" fill="#3b7f6e" opacity="0.56"/><circle cx="1015.49" cy="261.13" r="1.47" fill="#318343" opacity="0.40"/><circle cx="765.78" cy="43.54" r="0.91" fill="#318343" opacity="0.26"/><circle cx="706.94" cy="411.66" r="0.61" fill="#3b7f6e" opacity="0.53"/><circle cx="1080.85" cy="197.57" r="1.07" fill="#318343" opacity="0.41"/><circle cx="583.92" cy="155.78" r="1.50" fill="#318343" opacity="0.42"/><circle cx="810.13" cy="434.52" r="0.94" fill="#3b7f6e" opacity="0.49"/><circle cx="1081.38" cy="190.52" r="1.62" fill="#318343" opacity="0.73"/><circle cx="808.69" cy="135.32" r="0.71" fill="#318343" opacity="0.57"/><circle cx="973.42" cy="157.17" r="0.79" fill="#3b7f6e" opacity="0.47"/><circle cx="682.87" cy="68.17" r="1.64" fill="#318343" opacity="0.76"/><circle cx="879.82" cy="377.69" r="0.76" fill="#318343" opacity="0.75"/><circle cx="746.34" cy="399.81" r="0.61" fill="#3b7f6e" opacity="0.79"/><circle cx="992.78" cy="201.28" r="1.28" fill="#318343" opacity="0.26"/><circle cx="1084.23" cy="208.87" r="0.67" fill="#318343" opacity="0.38"/><circle cx="1007.09" cy="82.66" r="0.61" fill="#3b7f6e" opacity="0.36"/><circle cx="784.13" cy="177.36" r="1.33" fill="#318343" opacity="0.31"/><circle cx="881.04" cy="405.58" r="1.64" fill="#318343" opacity="0.43"/><circle cx="838.65" cy="88.11" r="1.31" fill="#3b7f6e" opacity="0.59"/><circle cx="924.12" cy="415.18" r="1.52" fill="#318343" opacity="0.30"/><circle cx="574.44" cy="177.05" r="0.99" fill="#318343" opacity="0.21"/><circle cx="894.89" cy="305.19" r="1.66" fill="#3b7f6e" opacity="0.65"/><circle cx="722.47" cy="357.60" r="1.48" fill="#318343" opacity="0.62"/><circle cx="651.96" cy="171.27" r="1.17" fill="#318343" opacity="0.62"/><circle cx="1047.22" cy="229.76" r="1.65" fill="#3b7f6e" opacity="0.46"/><circle cx="833.68" cy="293.75" r="0.95" fill="#318343" opacity="0.75"/><circle cx="1065.73" cy="218.21" r="1.61" fill="#318343" opacity="0.35"/><circle cx="924.68" cy="48.16" r="1.01" fill="#3b7f6e" opacity="0.73"/><circle cx="724.75" cy="33.48" r="1.66" fill="#318343" opacity="0.77"/><circle cx="799.51" cy="292.39" r="1.00" fill="#318343" opacity="0.49"/><circle cx="642.42" cy="204.22" r="0.80" fill="#3b7f6e" opacity="0.66"/><circle cx="948.11" cy="330.79" r="1.37" fill="#318343" opacity="0.64"/><circle cx="875.19" cy="313.01" r="1.21" fill="#318343" opacity="0.51"/><circle cx="844.13" cy="33.01" r="0.90" fill="#3b7f6e" opacity="0.71"/><circle cx="988.89" cy="223.93" r="1.36" fill="#318343" opacity="0.46"/><circle cx="980.08" cy="210.82" r="1.14" fill="#318343" opacity="0.80"/><circle cx="675.53" cy="106.46" r="0.80" fill="#3b7f6e" opacity="0.29"/><circle cx="704.87" cy="322.96" r="1.41" fill="#318343" opacity="0.78"/><circle cx="713.43" cy="401.07" r="1.51" fill="#318343" opacity="0.36"/><circle cx="1055.98" cy="128.59" r="1.66" fill="#3b7f6e" opacity="0.77"/><circle cx="759.41" cy="280.58" r="0.81" fill="#318343" opacity="0.74"/><circle cx="857.99" cy="345.12" r="1.15" fill="#318343" opacity="0.79"/><circle cx="808.04" cy="33.41" r="1.43" fill="#3b7f6e" opacity="0.73"/><circle cx="648.94" cy="124.47" r="1.36" fill="#318343" opacity="0.76"/><circle cx="1012.94" cy="87.13" r="1.06" fill="#318343" opacity="0.40"/><circle cx="1054.01" cy="125.70" r="1.31" fill="#3b7f6e" opacity="0.33"/><circle cx="916.14" cy="223.74" r="1.44" fill="#318343" opacity="0.36"/><circle cx="638.55" cy="173.00" r="0.87" fill="#318343" opacity="0.25"/><circle cx="862.57" cy="432.42" r="0.88" fill="#3b7f6e" opacity="0.63"/><circle cx="780.61" cy="257.85" r="0.98" fill="#318343" opacity="0.52"/><circle cx="700.62" cy="48.84" r="0.89" fill="#318343" opacity="0.54"/><circle cx="598.33" cy="142.48" r="1.31" fill="#3b7f6e" opacity="0.45"/><circle cx="982.62" cy="89.00" r="0.62" fill="#318343" opacity="0.78"/><circle cx="960.78" cy="140.63" r="0.66" fill="#318343" opacity="0.33"/><circle cx="961.61" cy="326.18" r="0.69" fill="#3b7f6e" opacity="0.24"/><circle cx="962.01" cy="205.88" r="1.06" fill="#318343" opacity="0.33"/><circle cx="934.45" cy="125.85" r="1.28" fill="#318343" opacity="0.49"/><circle cx="835.12" cy="408.98" r="0.81" fill="#3b7f6e" opacity="0.28"/><circle cx="597.22" cy="152.96" r="1.17" fill="#318343" opacity="0.35"/><circle cx="952.20" cy="282.33" r="1.36" fill="#318343" opacity="0.31"/><circle cx="891.57" cy="424.35" r="1.14" fill="#3b7f6e" opacity="0.52"/><circle cx="584.76" cy="234.74" r="1.23" fill="#318343" opacity="0.71"/><circle cx="972.54" cy="286.04" r="1.57" fill="#318343" opacity="0.34"/><circle cx="632.40" cy="98.47" r="1.61" fill="#3b7f6e" opacity="0.41"/><circle cx="983.52" cy="145.19" r="1.47" fill="#318343" opacity="0.38"/><circle cx="692.39" cy="48.65" r="1.17" fill="#318343" opacity="0.21"/><circle cx="753.46" cy="207.32" r="1.41" fill="#3b7f6e" opacity="0.31"/><circle cx="679.05" cy="366.70" r="0.74" fill="#318343" opacity="0.38"/><circle cx="925.37" cy="415.15" r="1.47" fill="#318343" opacity="0.44"/><circle cx="1026.41" cy="183.59" r="1.48" fill="#3b7f6e" opacity="0.30"/><circle cx="769.76" cy="114.21" r="0.70" fill="#318343" opacity="0.34"/><circle cx="590.77" cy="251.26" r="0.82" fill="#318343" opacity="0.76"/><circle cx="612.84" cy="346.35" r="1.34" fill="#3b7f6e" opacity="0.61"/><circle cx="665.05" cy="272.46" r="1.38" fill="#318343" opacity="0.35"/><circle cx="808.15" cy="426.42" r="0.96" fill="#318343" opacity="0.70"/><circle cx="930.61" cy="336.75" r="1.50" fill="#3b7f6e" opacity="0.61"/><circle cx="1036.00" cy="281.17" r="0.80" fill="#318343" opacity="0.56"/><circle cx="774.40" cy="30.16" r="0.86" fill="#318343" opacity="0.41"/><circle cx="901.41" cy="361.79" r="0.63" fill="#3b7f6e" opacity="0.40"/><circle cx="840.08" cy="192.06" r="1.39" fill="#318343" opacity="0.65"/><circle cx="947.20" cy="73.50" r="0.88" fill="#318343" opacity="0.50"/><circle cx="1069.22" cy="274.39" r="1.29" fill="#3b7f6e" opacity="0.38"/><circle cx="912.66" cy="366.88" r="0.94" fill="#318343" opacity="0.45"/><circle cx="753.61" cy="203.63" r="0.84" fill="#318343" opacity="0.38"/><circle cx="660.85" cy="327.69" r="1.06" fill="#3b7f6e" opacity="0.64"/><circle cx="912.67" cy="210.01" r="0.70" fill="#318343" opacity="0.64"/><circle cx="865.44" cy="65.87" r="1.12" fill="#318343" opacity="0.44"/><circle cx="891.15" cy="152.42" r="0.80" fill="#3b7f6e" opacity="0.62"/><circle cx="801.82" cy="199.58" r="1.18" fill="#318343" opacity="0.29"/><circle cx="678.76" cy="398.61" r="1.23" fill="#318343" opacity="0.47"/><circle cx="841.14" cy="25.57" r="0.72" fill="#3b7f6e" opacity="0.52"/><circle cx="584.22" cy="301.37" r="1.18" fill="#318343" opacity="0.68"/><circle cx="653.61" cy="101.40" r="1.38" fill="#318343" opacity="0.20"/><circle cx="614.60" cy="102.49" r="0.98" fill="#3b7f6e" opacity="0.80"/><circle cx="1039.26" cy="302.34" r="1.23" fill="#318343" opacity="0.58"/><circle cx="916.05" cy="262.95" r="0.68" fill="#318343" opacity="0.68"/><circle cx="831.52" cy="34.65" r="0.78" fill="#3b7f6e" opacity="0.31"/><circle cx="852.66" cy="428.34" r="1.03" fill="#318343" opacity="0.41"/><circle cx="670.68" cy="75.32" r="1.24" fill="#318343" opacity="0.50"/><circle cx="801.00" cy="69.60" r="1.15" fill="#3b7f6e" opacity="0.36"/><circle cx="869.96" cy="209.22" r="1.01" fill="#318343" opacity="0.49"/><circle cx="579.63" cy="200.88" r="1.04" fill="#318343" opacity="0.42"/><circle cx="991.92" cy="92.39" r="1.53" fill="#3b7f6e" opacity="0.51"/><circle cx="912.81" cy="342.17" r="1.68" fill="#318343" opacity="0.41"/><circle cx="581.82" cy="230.61" r="0.87" fill="#318343" opacity="0.40"/><circle cx="831.55" cy="192.56" r="0.70" fill="#3b7f6e" opacity="0.44"/><circle cx="1009.26" cy="129.70" r="1.01" fill="#318343" opacity="0.62"/><circle cx="598.59" cy="311.93" r="0.79" fill="#318343" opacity="0.79"/><circle cx="873.49" cy="326.18" r="1.39" fill="#3b7f6e" opacity="0.76"/><circle cx="706.61" cy="301.89" r="1.33" fill="#318343" opacity="0.54"/><circle cx="639.19" cy="78.35" r="1.18" fill="#318343" opacity="0.79"/><circle cx="818.78" cy="421.59" r="0.78" fill="#3b7f6e" opacity="0.37"/><circle cx="633.70" cy="249.27" r="1.16" fill="#318343" opacity="0.54"/><circle cx="1013.75" cy="101.14" r="1.12" fill="#318343" opacity="0.61"/><circle cx="676.17" cy="262.15" r="1.38" fill="#3b7f6e" opacity="0.69"/><circle cx="869.36" cy="417.96" r="1.32" fill="#318343" opacity="0.79"/><circle cx="975.57" cy="345.62" r="1.69" fill="#318343" opacity="0.27"/><circle cx="845.24" cy="65.01" r="1.52" fill="#3b7f6e" opacity="0.24"/><circle cx="730.22" cy="323.89" r="0.73" fill="#318343" opacity="0.29"/><circle cx="708.59" cy="411.34" r="0.90" fill="#318343" opacity="0.31"/><circle cx="730.17" cy="364.78" r="1.22" fill="#3b7f6e" opacity="0.67"/><circle cx="975.36" cy="343.23" r="0.79" fill="#318343" opacity="0.47"/><circle cx="997.36" cy="382.01" r="1.40" fill="#318343" opacity="0.55"/><circle cx="1052.90" cy="136.90" r="1.66" fill="#3b7f6e" opacity="0.61"/><circle cx="993.35" cy="381.57" r="1.62" fill="#318343" opacity="0.68"/><circle cx="578.85" cy="292.16" r="0.82" fill="#318343" opacity="0.38"/><circle cx="793.97" cy="211.99" r="0.71" fill="#3b7f6e" opacity="0.56"/><circle cx="863.86" cy="32.37" r="0.74" fill="#318343" opacity="0.47"/><circle cx="1011.39" cy="83.14" r="1.58" fill="#318343" opacity="0.66"/><circle cx="776.41" cy="200.64" r="0.87" fill="#3b7f6e" opacity="0.53"/><circle cx="909.26" cy="414.68" r="0.82" fill="#318343" opacity="0.44"/><circle cx="856.04" cy="236.79" r="1.37" fill="#318343" opacity="0.35"/><circle cx="937.45" cy="257.47" r="1.20" fill="#3b7f6e" opacity="0.48"/><circle cx="850.03" cy="54.24" r="1.01" fill="#318343" opacity="0.25"/><circle cx="738.27" cy="136.17" r="1.65" fill="#318343" opacity="0.35"/><circle cx="818.95" cy="417.20" r="0.67" fill="#3b7f6e" opacity="0.47"/><circle cx="990.27" cy="87.36" r="1.32" fill="#318343" opacity="0.77"/><circle cx="1046.06" cy="145.64" r="1.09" fill="#318343" opacity="0.47"/><circle cx="881.92" cy="115.85" r="1.28" fill="#3b7f6e" opacity="0.21"/><circle cx="875.07" cy="105.64" r="0.74" fill="#318343" opacity="0.43"/><circle cx="749.10" cy="166.07" r="1.00" fill="#318343" opacity="0.73"/><circle cx="961.06" cy="399.23" r="0.68" fill="#3b7f6e" opacity="0.70"/><circle cx="843.79" cy="392.00" r="1.06" fill="#318343" opacity="0.43"/><circle cx="873.45" cy="22.86" r="0.86" fill="#318343" opacity="0.61"/><circle cx="811.92" cy="24.94" r="1.58" fill="#3b7f6e" opacity="0.79"/><circle cx="1076.06" cy="245.09" r="1.07" fill="#318343" opacity="0.73"/><circle cx="1034.19" cy="344.26" r="0.72" fill="#318343" opacity="0.61"/><circle cx="973.54" cy="311.82" r="1.36" fill="#3b7f6e" opacity="0.74"/><circle cx="995.21" cy="380.60" r="0.97" fill="#318343" opacity="0.79"/><circle cx="1034.70" cy="113.38" r="1.69" fill="#318343" opacity="0.41"/><circle cx="600.64" cy="312.81" r="1.12" fill="#3b7f6e" opacity="0.50"/><circle cx="903.64" cy="120.67" r="0.90" fill="#318343" opacity="0.48"/><circle cx="877.37" cy="316.66" r="1.36" fill="#318343" opacity="0.31"/><circle cx="567.99" cy="250.24" r="0.81" fill="#3b7f6e" opacity="0.59"/><circle cx="993.34" cy="247.14" r="0.69" fill="#318343" opacity="0.20"/><circle cx="1036.68" cy="292.72" r="0.62" fill="#318343" opacity="0.77"/><circle cx="1029.65" cy="298.73" r="0.75" fill="#3b7f6e" opacity="0.62"/><circle cx="735.38" cy="220.86" r="1.26" fill="#318343" opacity="0.58"/><circle cx="853.18" cy="241.17" r="1.20" fill="#318343" opacity="0.64"/><circle cx="838.99" cy="308.34" r="1.63" fill="#3b7f6e" opacity="0.45"/><circle cx="1038.98" cy="304.77" r="1.63" fill="#318343" opacity="0.65"/><circle cx="609.96" cy="258.33" r="0.76" fill="#318343" opacity="0.33"/><circle cx="818.63" cy="434.77" r="0.67" fill="#3b7f6e" opacity="0.45"/><circle cx="959.13" cy="203.81" r="1.03" fill="#318343" opacity="0.71"/><circle cx="1040.76" cy="238.15" r="1.40" fill="#318343" opacity="0.21"/><circle cx="1063.04" cy="286.65" r="1.47" fill="#3b7f6e" opacity="0.76"/><circle cx="1024.90" cy="312.36" r="1.04" fill="#318343" opacity="0.30"/><circle cx="700.17" cy="190.23" r="1.13" fill="#318343" opacity="0.34"/><circle cx="643.45" cy="76.46" r="1.11" fill="#3b7f6e" opacity="0.52"/><circle cx="568.44" cy="257.38" r="1.23" fill="#318343" opacity="0.24"/><circle cx="1035.10" cy="155.30" r="1.39" fill="#318343" opacity="0.76"/><circle cx="637.82" cy="80.26" r="0.78" fill="#3b7f6e" opacity="0.25"/><circle cx="844.00" cy="25.92" r="0.74" fill="#318343" opacity="0.75"/><circle cx="841.96" cy="285.67" r="0.94" fill="#318343" opacity="0.28"/><circle cx="969.57" cy="158.04" r="1.40" fill="#3b7f6e" opacity="0.62"/><circle cx="1062.29" cy="195.95" r="0.86" fill="#318343" opacity="0.78"/><circle cx="873.59" cy="377.73" r="1.34" fill="#318343" opacity="0.59"/><circle cx="1071.56" cy="163.36" r="1.67" fill="#3b7f6e" opacity="0.61"/><circle cx="950.87" cy="407.78" r="0.99" fill="#318343" opacity="0.43"/><circle cx="721.81" cy="387.50" r="1.11" fill="#318343" opacity="0.66"/><circle cx="710.61" cy="150.78" r="1.49" fill="#3b7f6e" opacity="0.21"/><circle cx="843.69" cy="373.41" r="0.71" fill="#318343" opacity="0.46"/><circle cx="848.18" cy="420.02" r="0.87" fill="#318343" opacity="0.27"/><circle cx="793.10" cy="321.84" r="1.29" fill="#3b7f6e" opacity="0.48"/><circle cx="654.52" cy="236.58" r="0.90" fill="#318343" opacity="0.66"/><circle cx="1008.74" cy="284.62" r="1.31" fill="#318343" opacity="0.52"/><circle cx="904.31" cy="393.95" r="1.11" fill="#3b7f6e" opacity="0.75"/><circle cx="876.70" cy="141.12" r="1.17" fill="#318343" opacity="0.27"/><circle cx="761.43" cy="356.10" r="0.86" fill="#318343" opacity="0.69"/><circle cx="732.19" cy="34.70" r="1.17" fill="#3b7f6e" opacity="0.55"/><circle cx="1012.34" cy="349.25" r="1.22" fill="#318343" opacity="0.78"/><circle cx="787.15" cy="17.72" r="1.59" fill="#318343" opacity="0.78"/><circle cx="570.20" cy="222.52" r="0.63" fill="#3b7f6e" opacity="0.52"/><circle cx="619.75" cy="110.30" r="1.65" fill="#318343" opacity="0.68"/><circle cx="905.05" cy="251.43" r="1.31" fill="#318343" opacity="0.64"/><circle cx="961.75" cy="393.56" r="1.37" fill="#3b7f6e" opacity="0.50"/><circle cx="677.14" cy="353.06" r="0.76" fill="#318343" opacity="0.69"/><circle cx="754.62" cy="89.96" r="0.87" fill="#318343" opacity="0.35"/><circle cx="820.26" cy="182.77" r="0.88" fill="#3b7f6e" opacity="0.63"/><circle cx="730.10" cy="31.64" r="1.21" fill="#318343" opacity="0.50"/><circle cx="1028.37" cy="205.53" r="1.03" fill="#318343" opacity="0.73"/><circle cx="889.24" cy="71.45" r="1.56" fill="#3b7f6e" opacity="0.39"/><circle cx="587.70" cy="263.36" r="1.13" fill="#318343" opacity="0.53"/><circle cx="683.98" cy="48.99" r="1.33" fill="#318343" opacity="0.21"/><circle cx="961.48" cy="239.22" r="1.53" fill="#3b7f6e" opacity="0.50"/><circle cx="1081.48" cy="211.13" r="0.99" fill="#318343" opacity="0.67"/><circle cx="632.90" cy="354.49" r="0.76" fill="#318343" opacity="0.59"/><circle cx="1036.00" cy="158.57" r="1.34" fill="#3b7f6e" opacity="0.38"/><circle cx="587.90" cy="301.95" r="1.61" fill="#318343" opacity="0.32"/><circle cx="837.60" cy="380.58" r="1.09" fill="#318343" opacity="0.77"/><circle cx="700.19" cy="41.52" r="1.48" fill="#3b7f6e" opacity="0.62"/><circle cx="640.34" cy="358.10" r="1.18" fill="#318343" opacity="0.34"/><circle cx="751.14" cy="347.45" r="1.25" fill="#318343" opacity="0.69"/><circle cx="1078.85" cy="187.27" r="0.65" fill="#3b7f6e" opacity="0.68"/><circle cx="758.44" cy="176.29" r="0.76" fill="#318343" opacity="0.32"/><circle cx="811.73" cy="17.58" r="1.49" fill="#318343" opacity="0.42"/><circle cx="883.86" cy="429.42" r="1.66" fill="#3b7f6e" opacity="0.73"/><circle cx="625.05" cy="149.52" r="0.94" fill="#318343" opacity="0.34"/><circle cx="780.25" cy="417.78" r="0.61" fill="#318343" opacity="0.62"/><circle cx="971.23" cy="170.95" r="0.71" fill="#3b7f6e" opacity="0.24"/><circle cx="642.55" cy="97.40" r="0.69" fill="#318343" opacity="0.34"/><circle cx="707.62" cy="203.47" r="0.62" fill="#318343" opacity="0.55"/><text x="48" y="56" fill="#557b71" font-size="13" text-anchor="start" font-weight="400">PROJECT / OPEN SOURCE</text><text x="48" y="182" font-size="74.0" fill="url(#brand)" font-weight="700">hwcfgmap</text><text x="50" y="242.0" fill="#132a20" font-size="24" text-anchor="start" font-weight="400">Turn a hardware profile into a</text><text x="50" y="275.6" fill="#132a20" font-size="24" text-anchor="start" font-weight="400">starting launch configuration.</text><path d="M656.0 309.0L762.6 193.5L864.0 235.5L975.8 120.0" fill="none" stroke="#318343" stroke-width="1.5" marker-end="url(#arrow)"/><path d="M656.0 309.0L762.6 193.5L864.0 235.5L975.8 120.0" class="flow" fill="none" stroke="#5c7c57" stroke-width="2"/><circle cx="656.0" cy="309.0" r="12" fill="#5c7c57" opacity=".5" filter="url(#glow)"/><circle class="pulse" cx="656.0" cy="309.0" r="3" fill="#5c7c57"/><circle cx="762.6" cy="193.5" r="12" fill="#5c7c57" opacity=".5" filter="url(#glow)"/><circle class="pulse" cx="762.6" cy="193.5" r="3" fill="#5c7c57"/><circle cx="864.0" cy="235.5" r="12" fill="#5c7c57" opacity=".5" filter="url(#glow)"/><circle class="pulse" cx="864.0" cy="235.5" r="3" fill="#5c7c57"/><circle cx="975.8" cy="120.0" r="12" fill="#5c7c57" opacity=".5" filter="url(#glow)"/><circle class="pulse" cx="975.8" cy="120.0" r="3" fill="#5c7c57"/></svg>
